<svg xmlns="http://www.w3.org/2000/svg" xmlns:xlink="http://www.w3.org/1999/xlink" viewBox="0 0 1366 772.98">
    <defs>
        <style>
            .cls-1 {
                fill: #fffefd00;
            }
            .cls-2 {
                opacity: 0.24;
            }
            .cls-3 {
                fill: #cea680;
            }
            .cls-4 {
                opacity: 0.55;
            }
            .cls-5 {
                fill: url(#linear-gradient);
            }
            .cls-6 {
                fill: url(#linear-gradient-2);
            }
            .cls-7 {
                fill: url(#linear-gradient-3);
            }
            .cls-8 {
                fill: url(#linear-gradient-4);
            }
            .cls-9 {
                fill: url(#linear-gradient-5);
            }
            .cls-10 {
                fill: none;
            }
        </style>
        <linearGradient id="linear-gradient" x1="533.32" y1="2.49" x2="541.95" y2="2.49" gradientUnits="userSpaceOnUse">
            <stop offset="0" stop-color="#ff5c00" />
            <stop offset="0.99" stop-color="#fb905d" />
        </linearGradient>
        <linearGradient id="linear-gradient-2" x1="444" y1="719.48" x2="562" y2="719.48" xlink:href="#linear-gradient" />
        <linearGradient id="linear-gradient-3" x1="569.81" y1="641.14" x2="608.05" y2="641.14" gradientTransform="translate(1.43 -1.62) rotate(0.13)" xlink:href="#linear-gradient" />
        <linearGradient id="linear-gradient-4" x1="589" y1="722.98" x2="649" y2="722.98" xlink:href="#linear-gradient" />
        <linearGradient id="linear-gradient-5" x1="679.11" y1="668.94" x2="763.11" y2="668.94" gradientTransform="translate(1.43 -1.62) rotate(0.13)" xlink:href="#linear-gradient" />
    </defs>
    <title>bg-1</title>
    <g id="Layer_2" data-name="Layer 2">
        <g id="Layer_1-2" data-name="Layer 1">
            <path class="cls-1" d="M1366,5V128.71l-1.47,1.42c-1,.94-2,1.86-3,2.77q-.75.69-1.53,1.35c-.51.45-1,.89-1.55,1.33l-1.38,1.16-.57.47-1.2,1c-1.07.85-2.14,1.68-3.23,2.49a135.51,135.51,0,0,1-11.87,7.94l-1.53.9c-.82.47-1.65.94-2.49,1.4-1,.57-2.08,1.12-3.13,1.67s-2.24,1.13-3.38,1.68l-1.22.58c-.6.29-1.21.56-1.82.84l-1.35.6-1.51.64q-1.9.81-3.84,1.56l-1.9.71-2,.7-1.86.64-.25.08-1.81.59-2,.61a132.56,132.56,0,0,1-38,5.55C1197,167.35,1136,104.64,1136,27.27A144.82,144.82,0,0,1,1137.75,5Z" />
            <path class="cls-1" d="M463.42,239c0,107.53-53.16,202.37-134.08,258.52C298.72,424.82,228.38,374,146.5,374,88.56,374,36.4,399.44,0,440.08V5H360.24a312.4,312.4,0,0,1,66,84.5,315.8,315.8,0,0,1,37.07,139.9Q463.42,234.17,463.42,239Z" />
            <path class="cls-1" d="M329.34,497.5a301.94,301.94,0,0,1-56,30.68,300,300,0,0,1-250-8.93q-12-6-23.35-13.08V440.08C36.4,399.44,88.56,374,146.5,374,228.38,374,298.72,424.82,329.34,497.5Z" />
            <path class="cls-1" d="M823.69,109c0,113.22-89.18,205-199.19,205a195.91,195.91,0,0,1-25.32-1.64,466,466,0,0,0,5.65-64.73q.09-4.31.09-8.63A462.51,462.51,0,0,0,542,5H796.19A208.54,208.54,0,0,1,823.69,109Z" />
            <g class="cls-2"><path class="cls-3" d="M1308.5,470c-110,0-199.19,91.78-199.19,205a208.75,208.75,0,0,0,24.19,98h77.75a141.73,141.73,0,0,1-38.86-98c0-77.37,60.94-140.08,136.11-140.08A132.26,132.26,0,0,1,1366,548V478.65A194,194,0,0,0,1308.5,470Z" /></g>
            <g class="cls-2"><path class="cls-3" d="M146.5,374C88.56,374,36.4,399.44,0,440.08v66.09q11.36,7,23.35,13.08C45.14,471.76,92.09,438.9,146.5,438.9c57.76,0,107.12,37,126.88,89.28a301.94,301.94,0,0,0,56-30.68C298.72,424.82,228.38,374,146.5,374Z" /></g>
            <g class="cls-2"><path class="cls-3" d="M796.19,5H715.68a141.55,141.55,0,0,1,44.93,104c0,77.37-60.94,140.08-136.11,140.08a134.33,134.33,0,0,1-19.67-1.45,466,466,0,0,1-5.65,64.73A195.91,195.91,0,0,0,624.5,314c110,0,199.19-91.78,199.19-205A208.54,208.54,0,0,0,796.19,5Z" /></g>
            <g class="cls-4"><path class="cls-5" d="M539,0c-1.94,1.6-3.83,3.27-5.67,5H542Q540.5,2.47,539,0Z" /></g>
            <g class="cls-2"><path class="cls-3" d="M604.92,239q0,4.32-.09,8.63a466,466,0,0,1-5.65,64.73C574.21,470.61,469.74,601.66,329,661.27a434.66,434.66,0,0,1-99.62,28.84A441.22,441.22,0,0,1,56.47,684,433.43,433.43,0,0,1,0,666.48V506.17q11.36,7,23.35,13.08a300,300,0,0,0,250,8.93,301.94,301.94,0,0,0,56-30.68c80.92-56.15,134.08-151,134.08-258.52q0-4.81-.15-9.6A315.8,315.8,0,0,0,426.2,89.48a312.4,312.4,0,0,0-66-84.5H542A462.51,462.51,0,0,1,604.92,239Z" /></g>
            <g class="cls-2"><path class="cls-3" d="M1366,128.71v79.41c-.21.12-.42.24-.64.34-.66.37-1.33.73-2,1.08-.88.47-1.77.93-2.66,1.39q-2.67,1.38-5.38,2.65c-.9.43-1.81.85-2.72,1.26s-1.83.83-2.75,1.23-1.84.79-2.76,1.18-1.86.77-2.79,1.14l-2.81,1.1q-2.82,1.09-5.67,2.07l-2.87,1-2.26.73-.91.29-2.6.79h0l-2.61.75-.68.19-2.54.68c-1,.26-2,.51-3,.75-2,.49-4,.94-6,1.36l-2.56.52-.8.16-2.58.47a.45.45,0,0,1-.16,0c-.91.17-1.83.32-2.76.47-.3.06-.6.1-.9.14-.67.12-1.35.22-2,.32l-1.46.2q-1,.15-2,.27c-2.45.32-4.92.59-7.39.81l-2.41.21-2.06.14-1.21.08c-.51,0-1,.07-1.55.09-1,0-1.9.1-2.85.13h-.35c-.71,0-1.43.06-2.15.07l-1.9,0-3.18,0c-110,0-199.19-91.78-199.19-205A210.37,210.37,0,0,1,1074.12,5h63.63A144.82,144.82,0,0,0,1136,27.27c0,77.37,60.94,140.08,136.11,140.08a132.56,132.56,0,0,0,38-5.55l2-.61,1.81-.59.25-.08,1.86-.64c.66-.22,1.31-.46,2-.7l1.9-.71q1.93-.75,3.84-1.56l1.51-.64,1.35-.6c.61-.28,1.22-.55,1.82-.84l1.22-.58c1.14-.55,2.26-1.11,3.38-1.68s2.1-1.1,3.13-1.67c.84-.46,1.67-.93,2.49-1.4l1.53-.9a135.51,135.51,0,0,0,11.87-7.94c1.09-.81,2.16-1.64,3.23-2.49l1.2-1,.57-.47c.46-.38.92-.76,1.38-1.16s1-.87,1.55-1.33,1-.89,1.53-1.35c1-.91,2-1.83,3-2.77C1365,129.67,1365.52,129.19,1366,128.71Z" /></g>
            <path class="cls-6" d="M562,725a58.93,58.93,0,0,1-24.69,48H468.69A59,59,0,1,1,562,725Z" />
            <circle class="cls-7" cx="588.88" cy="640.87" r="19.12" />
            <circle class="cls-8" cx="619" cy="722.98" r="30" />
            <circle class="cls-9" cx="721" cy="668.98" r="42" />
            <polyline class="cls-10" points="1366 772.98 1366 547.98 1366 478.65 1366 208.12 1366 128.71" />
        </g>
    </g>
</svg>
